<svg xmlns="http://www.w3.org/2000/svg" width="1024" height="1024" viewBox="0 0 1024 1024"><defs><linearGradient id="g" x1="0.15" y1="0" x2="0.85" y2="1"><stop offset="0" stop-color="#2E9CFF"></stop><stop offset="1" stop-color="#0A63E0"></stop></linearGradient></defs><rect width="1024" height="1024" rx="230" ry="230" fill="url(#g)"></rect><g transform="translate(512 512) scale(7.111) translate(-60 -60)"><g transform="translate(60 60) scale(1.3) translate(-60 -60)"><path d="M52 26 q8 -3 16 0 l-3 44 q-5 2 -10 0 Z" fill="#fff"></path><path d="M60 76 C61.5 86 64 90 75 91.5 C64 93 61.5 97 60 107 C58.5 97 56 93 45 91.5 C56 90 58.5 86 60 76 Z" fill="#FFC83D"></path><path d="M0 -1 c.107 .714 .286 .893 .982 1 c-.696 .107 -.875 .286 -.982 1 c-.107 -.714 -.286 -.893 -.982 -1 c.696 -.107 .875 -.286 .982 -1 Z" fill="#FFE08A" transform="translate(88 44) scale(11)"></path><path d="M0 -1 c.107 .714 .286 .893 .982 1 c-.696 .107 -.875 .286 -.982 1 c-.107 -.714 -.286 -.893 -.982 -1 c.696 -.107 .875 -.286 .982 -1 Z" fill="#FFE08A" transform="translate(32 29) scale(11)"></path></g></g></svg>